<?xml version="1.0" standalone="no"?><!DOCTYPE svg PUBLIC "-//W3C//DTD SVG 1.1//EN" "http://www.w3.org/Graphics/SVG/1.1/DTD/svg11.dtd"><svg t="1741082334017" class="icon" viewBox="0 0 1024 1024" version="1.1" xmlns="http://www.w3.org/2000/svg" p-id="1534" xmlns:xlink="http://www.w3.org/1999/xlink" width="200" height="200"><path d="M870.4 384 768 128l-64 0L704 0 512 0l0 128L192 128 89.6 384 0 384l0 448 128 0 0 128 192 0 0-128 320 0 0 128 192 0 0-128 128 0L960 384 870.4 384zM576 64l64 0 0 57.984L576 121.984 576 64zM235.328 192l489.344 0 29.76 74.368C738.944 259.712 721.92 256 704 256 633.28 256 576 313.28 576 384L158.528 384 235.328 192zM768 384l-128 0c0-35.264 28.736-64 64-64S768 348.736 768 384zM256 896 192 896l0-57.984 64 0L256 896zM768 896l-64 0 0-57.984 64 0L768 896zM896 768 64 768 64 448l832 0L896 768zM704 512 256 512l0 64 448 0L704 512zM704 640 256 640l0 64 448 0L704 640zM192 512 128 512l0 64 64 0L192 512zM832 512l-64 0 0 64 64 0L832 512z" p-id="1535" fill="#1296db"></path></svg>