<?xml version="1.0" standalone="no"?><!DOCTYPE svg PUBLIC "-//W3C//DTD SVG 1.1//EN" "http://www.w3.org/Graphics/SVG/1.1/DTD/svg11.dtd"><svg t="1741082325952" class="icon" viewBox="0 0 1024 1024" version="1.1" xmlns="http://www.w3.org/2000/svg" p-id="1353" xmlns:xlink="http://www.w3.org/1999/xlink" width="200" height="200"><path d="M768.3072 126.464 264.3968 126.464c-44.4416 0-88.3712 30.3104-88.3712 75.3664l0 292.1472 0 0 0 0 0 209.6128c0 45.056 28.8768 88.4736 88.3712 88.4736l68.096 0-54.5792 91.3408c-7.0656 12.1856-2.8672 26.3168 9.3184 33.28 12.1856 6.9632 27.9552 5.3248 35.0208-6.8608l69.4272-117.76 249.5488 0L710.656 909.0048c7.0656 12.1856 22.7328 14.7456 34.9184 7.68s16.384-20.2752 9.4208-32.4608l-54.5792-92.16 68.096 0c44.4416 0 73.3184-43.4176 73.3184-88.4736l0-501.76C841.6256 156.7744 812.7488 126.464 768.3072 126.464zM790.4256 703.5904c0 16.6912-6.0416 37.2736-22.1184 37.2736L257.7408 740.864c-23.4496 0-30.5152-31.5392-30.5152-48.128l0-156.672 563.2 0L790.4256 703.5904zM790.4256 484.864l-563.2 0L227.2256 201.8304c0-16.6912 21.0944-24.1664 37.1712-24.1664l503.9104 0c16.0768 0 22.1184 7.4752 22.1184 24.1664L790.4256 484.864z" p-id="1354" fill="#1296db"></path><path d="M376.832 626.688m-51.2 0a50 50 0 1 0 102.4 0 50 50 0 1 0-102.4 0Z" p-id="1355" fill="#1296db"></path><path d="M655.7696 626.688m-51.2 0a50 50 0 1 0 102.4 0 50 50 0 1 0-102.4 0Z" p-id="1356" fill="#1296db"></path></svg>