<?xml version="1.0" standalone="no"?><!DOCTYPE svg PUBLIC "-//W3C//DTD SVG 1.1//EN" "http://www.w3.org/Graphics/SVG/1.1/DTD/svg11.dtd"><svg t="1741082346724" class="icon" viewBox="0 0 1101 1024" version="1.1" xmlns="http://www.w3.org/2000/svg" p-id="1892" xmlns:xlink="http://www.w3.org/1999/xlink" width="215.0390625" height="200"><path d="M0 877.125162v24.405922l1078.741751 0.439306 1.561979-551.573836-478.356071-0.244059C268.221082 350.176901 0 586.572661 0 877.125162z m512.524361-471.864096v228.244183H120.17476A566.21739 566.21739 0 0 1 512.524361 405.261066zM42.954423 852.71924a420.562847 420.562847 0 0 1 47.957636-170.402147H561.336205V400.575129c12.398208-0.707772 24.723199-1.586385 37.316655-1.586385H707.771737v283.328349h319.424707l-0.488119 170.841453z m984.36405-219.213991H756.583581v-234.443287l271.393852 0.146436z" p-id="1893" fill="#1296db"></path><path d="M0 975.188156h1073.860566v48.811844H0z" p-id="1894" fill="#1296db"></path><path d="M1005.523985 0.000732a97.867747 97.867747 0 0 0-94.182453 96.574233h48.811844a46.371252 46.371252 0 1 1 92.498444 0.756584 49.836893 49.836893 0 0 1-50.227387 48.05526H512.524361v48.811844h489.900072a98.282648 98.282648 0 0 0 99.039231-97.111163A95.549184 95.549184 0 0 0 1005.523985 0.000732z" p-id="1895" fill="#1296db"></path><path d="M854.207269 243.010497h219.653297v48.811844h-219.653297z" p-id="1896" fill="#1296db"></path></svg>